<mxfile host="app.diagrams.net" modified="2023-11-12T19:11:44.900Z" agent="Mozilla/5.0 (X11; Ubuntu; Linux x86_64; rv:109.0) Gecko/20100101 Firefox/119.0" etag="iP_ZLb9cKEU9wagyyv-H" version="21.5.0" type="github">
  <diagram name="Page-1" id="Jt886_QvD0P6Ofsd677j">
    <mxGraphModel dx="1364" dy="795" grid="1" gridSize="10" guides="1" tooltips="1" connect="1" arrows="1" fold="1" page="1" pageScale="1" pageWidth="850" pageHeight="1100" math="0" shadow="0">
      <root>
        <mxCell id="0" />
        <mxCell id="1" parent="0" />
        <mxCell id="RAqRMx-kZ3DzzNGbXhLO-74" value="" style="edgeStyle=orthogonalEdgeStyle;rounded=0;orthogonalLoop=1;jettySize=auto;html=1;" edge="1" parent="1" source="RAqRMx-kZ3DzzNGbXhLO-2" target="RAqRMx-kZ3DzzNGbXhLO-73">
          <mxGeometry relative="1" as="geometry" />
        </mxCell>
        <mxCell id="RAqRMx-kZ3DzzNGbXhLO-2" value="Start" style="ellipse;whiteSpace=wrap;html=1;" vertex="1" parent="1">
          <mxGeometry x="270" y="80" width="120" height="80" as="geometry" />
        </mxCell>
        <mxCell id="RAqRMx-kZ3DzzNGbXhLO-38" value="" style="edgeStyle=orthogonalEdgeStyle;rounded=0;orthogonalLoop=1;jettySize=auto;html=1;" edge="1" parent="1" source="RAqRMx-kZ3DzzNGbXhLO-6" target="RAqRMx-kZ3DzzNGbXhLO-9">
          <mxGeometry relative="1" as="geometry" />
        </mxCell>
        <mxCell id="RAqRMx-kZ3DzzNGbXhLO-58" value="" style="edgeStyle=orthogonalEdgeStyle;rounded=0;orthogonalLoop=1;jettySize=auto;html=1;" edge="1" parent="1" source="RAqRMx-kZ3DzzNGbXhLO-6" target="RAqRMx-kZ3DzzNGbXhLO-57">
          <mxGeometry relative="1" as="geometry" />
        </mxCell>
        <mxCell id="RAqRMx-kZ3DzzNGbXhLO-6" value="is it %s?" style="rhombus;whiteSpace=wrap;html=1;rounded=0;" vertex="1" parent="1">
          <mxGeometry x="460" y="400" width="120" height="110" as="geometry" />
        </mxCell>
        <mxCell id="RAqRMx-kZ3DzzNGbXhLO-39" value="" style="edgeStyle=orthogonalEdgeStyle;rounded=0;orthogonalLoop=1;jettySize=auto;html=1;" edge="1" parent="1" source="RAqRMx-kZ3DzzNGbXhLO-9" target="RAqRMx-kZ3DzzNGbXhLO-10">
          <mxGeometry relative="1" as="geometry" />
        </mxCell>
        <mxCell id="RAqRMx-kZ3DzzNGbXhLO-63" value="" style="edgeStyle=orthogonalEdgeStyle;rounded=0;orthogonalLoop=1;jettySize=auto;html=1;" edge="1" parent="1" source="RAqRMx-kZ3DzzNGbXhLO-9" target="RAqRMx-kZ3DzzNGbXhLO-62">
          <mxGeometry relative="1" as="geometry" />
        </mxCell>
        <mxCell id="RAqRMx-kZ3DzzNGbXhLO-9" value="is it %d?" style="rhombus;whiteSpace=wrap;html=1;rounded=0;" vertex="1" parent="1">
          <mxGeometry x="460" y="550" width="120" height="110" as="geometry" />
        </mxCell>
        <mxCell id="RAqRMx-kZ3DzzNGbXhLO-40" value="" style="edgeStyle=orthogonalEdgeStyle;rounded=0;orthogonalLoop=1;jettySize=auto;html=1;" edge="1" parent="1" source="RAqRMx-kZ3DzzNGbXhLO-10" target="RAqRMx-kZ3DzzNGbXhLO-12">
          <mxGeometry relative="1" as="geometry" />
        </mxCell>
        <mxCell id="RAqRMx-kZ3DzzNGbXhLO-65" value="" style="edgeStyle=orthogonalEdgeStyle;rounded=0;orthogonalLoop=1;jettySize=auto;html=1;" edge="1" parent="1" source="RAqRMx-kZ3DzzNGbXhLO-10" target="RAqRMx-kZ3DzzNGbXhLO-64">
          <mxGeometry relative="1" as="geometry" />
        </mxCell>
        <mxCell id="RAqRMx-kZ3DzzNGbXhLO-10" value="is it %f?" style="rhombus;whiteSpace=wrap;html=1;rounded=0;" vertex="1" parent="1">
          <mxGeometry x="460" y="700" width="120" height="110" as="geometry" />
        </mxCell>
        <mxCell id="RAqRMx-kZ3DzzNGbXhLO-37" value="" style="edgeStyle=orthogonalEdgeStyle;rounded=0;orthogonalLoop=1;jettySize=auto;html=1;" edge="1" parent="1" source="RAqRMx-kZ3DzzNGbXhLO-12" target="RAqRMx-kZ3DzzNGbXhLO-36">
          <mxGeometry relative="1" as="geometry" />
        </mxCell>
        <mxCell id="RAqRMx-kZ3DzzNGbXhLO-67" value="" style="edgeStyle=orthogonalEdgeStyle;rounded=0;orthogonalLoop=1;jettySize=auto;html=1;" edge="1" parent="1" source="RAqRMx-kZ3DzzNGbXhLO-12" target="RAqRMx-kZ3DzzNGbXhLO-66">
          <mxGeometry relative="1" as="geometry" />
        </mxCell>
        <mxCell id="RAqRMx-kZ3DzzNGbXhLO-12" value="is it %u?" style="rhombus;whiteSpace=wrap;html=1;rounded=0;" vertex="1" parent="1">
          <mxGeometry x="460" y="840" width="120" height="110" as="geometry" />
        </mxCell>
        <mxCell id="RAqRMx-kZ3DzzNGbXhLO-18" value="" style="edgeStyle=orthogonalEdgeStyle;rounded=0;orthogonalLoop=1;jettySize=auto;html=1;" edge="1" parent="1" source="RAqRMx-kZ3DzzNGbXhLO-13" target="RAqRMx-kZ3DzzNGbXhLO-17">
          <mxGeometry relative="1" as="geometry" />
        </mxCell>
        <mxCell id="RAqRMx-kZ3DzzNGbXhLO-106" style="edgeStyle=orthogonalEdgeStyle;rounded=0;orthogonalLoop=1;jettySize=auto;html=1;exitX=1;exitY=0.5;exitDx=0;exitDy=0;entryX=0;entryY=0.5;entryDx=0;entryDy=0;" edge="1" parent="1" source="RAqRMx-kZ3DzzNGbXhLO-13" target="RAqRMx-kZ3DzzNGbXhLO-6">
          <mxGeometry relative="1" as="geometry" />
        </mxCell>
        <mxCell id="RAqRMx-kZ3DzzNGbXhLO-13" value="is it a spercifier?" style="rhombus;whiteSpace=wrap;html=1;rounded=0;" vertex="1" parent="1">
          <mxGeometry x="270" y="400" width="120" height="110" as="geometry" />
        </mxCell>
        <mxCell id="RAqRMx-kZ3DzzNGbXhLO-20" value="" style="edgeStyle=orthogonalEdgeStyle;rounded=0;orthogonalLoop=1;jettySize=auto;html=1;" edge="1" parent="1" source="RAqRMx-kZ3DzzNGbXhLO-17" target="RAqRMx-kZ3DzzNGbXhLO-19">
          <mxGeometry relative="1" as="geometry" />
        </mxCell>
        <mxCell id="RAqRMx-kZ3DzzNGbXhLO-34" value="" style="edgeStyle=orthogonalEdgeStyle;rounded=0;orthogonalLoop=1;jettySize=auto;html=1;" edge="1" parent="1" source="RAqRMx-kZ3DzzNGbXhLO-17" target="RAqRMx-kZ3DzzNGbXhLO-33">
          <mxGeometry relative="1" as="geometry" />
        </mxCell>
        <mxCell id="RAqRMx-kZ3DzzNGbXhLO-17" value="&lt;div&gt;is it \n ?&lt;/div&gt;" style="rhombus;whiteSpace=wrap;html=1;rounded=0;" vertex="1" parent="1">
          <mxGeometry x="270" y="540" width="120" height="110" as="geometry" />
        </mxCell>
        <mxCell id="RAqRMx-kZ3DzzNGbXhLO-24" value="" style="edgeStyle=orthogonalEdgeStyle;rounded=0;orthogonalLoop=1;jettySize=auto;html=1;" edge="1" parent="1" source="RAqRMx-kZ3DzzNGbXhLO-19" target="RAqRMx-kZ3DzzNGbXhLO-23">
          <mxGeometry relative="1" as="geometry" />
        </mxCell>
        <mxCell id="RAqRMx-kZ3DzzNGbXhLO-30" value="" style="edgeStyle=orthogonalEdgeStyle;rounded=0;orthogonalLoop=1;jettySize=auto;html=1;" edge="1" parent="1" source="RAqRMx-kZ3DzzNGbXhLO-19" target="RAqRMx-kZ3DzzNGbXhLO-29">
          <mxGeometry relative="1" as="geometry" />
        </mxCell>
        <mxCell id="RAqRMx-kZ3DzzNGbXhLO-88" value="" style="edgeStyle=orthogonalEdgeStyle;rounded=0;orthogonalLoop=1;jettySize=auto;html=1;" edge="1" parent="1" source="RAqRMx-kZ3DzzNGbXhLO-19" target="RAqRMx-kZ3DzzNGbXhLO-29">
          <mxGeometry relative="1" as="geometry" />
        </mxCell>
        <mxCell id="RAqRMx-kZ3DzzNGbXhLO-19" value="is is \0?" style="rhombus;whiteSpace=wrap;html=1;rounded=0;" vertex="1" parent="1">
          <mxGeometry x="70" y="540" width="120" height="110" as="geometry" />
        </mxCell>
        <mxCell id="RAqRMx-kZ3DzzNGbXhLO-22" value="No" style="text;html=1;strokeColor=none;fillColor=none;align=center;verticalAlign=middle;whiteSpace=wrap;rounded=0;" vertex="1" parent="1">
          <mxGeometry x="270" y="510" width="60" height="30" as="geometry" />
        </mxCell>
        <mxCell id="RAqRMx-kZ3DzzNGbXhLO-25" value="" style="edgeStyle=orthogonalEdgeStyle;rounded=0;orthogonalLoop=1;jettySize=auto;html=1;" edge="1" parent="1" source="RAqRMx-kZ3DzzNGbXhLO-23" target="RAqRMx-kZ3DzzNGbXhLO-13">
          <mxGeometry relative="1" as="geometry" />
        </mxCell>
        <mxCell id="RAqRMx-kZ3DzzNGbXhLO-23" value="Add to buffer" style="rounded=0;whiteSpace=wrap;html=1;" vertex="1" parent="1">
          <mxGeometry x="70" y="425" width="120" height="60" as="geometry" />
        </mxCell>
        <mxCell id="RAqRMx-kZ3DzzNGbXhLO-26" value="No" style="text;html=1;strokeColor=none;fillColor=none;align=center;verticalAlign=middle;whiteSpace=wrap;rounded=0;" vertex="1" parent="1">
          <mxGeometry x="210" y="560" width="60" height="30" as="geometry" />
        </mxCell>
        <mxCell id="RAqRMx-kZ3DzzNGbXhLO-29" value="End function" style="whiteSpace=wrap;html=1;rounded=0;" vertex="1" parent="1">
          <mxGeometry x="70" y="700" width="120" height="60" as="geometry" />
        </mxCell>
        <mxCell id="RAqRMx-kZ3DzzNGbXhLO-31" value="Yes" style="text;html=1;strokeColor=none;fillColor=none;align=center;verticalAlign=middle;whiteSpace=wrap;rounded=0;" vertex="1" parent="1">
          <mxGeometry x="120" y="650" width="60" height="30" as="geometry" />
        </mxCell>
        <mxCell id="RAqRMx-kZ3DzzNGbXhLO-32" value="No" style="text;html=1;strokeColor=none;fillColor=none;align=center;verticalAlign=middle;whiteSpace=wrap;rounded=0;" vertex="1" parent="1">
          <mxGeometry x="70" y="500" width="60" height="30" as="geometry" />
        </mxCell>
        <mxCell id="RAqRMx-kZ3DzzNGbXhLO-33" value="Send buffer to stdout" style="whiteSpace=wrap;html=1;rounded=0;" vertex="1" parent="1">
          <mxGeometry x="270" y="680" width="120" height="60" as="geometry" />
        </mxCell>
        <mxCell id="RAqRMx-kZ3DzzNGbXhLO-42" value="" style="edgeStyle=orthogonalEdgeStyle;rounded=0;orthogonalLoop=1;jettySize=auto;html=1;" edge="1" parent="1" source="RAqRMx-kZ3DzzNGbXhLO-36" target="RAqRMx-kZ3DzzNGbXhLO-41">
          <mxGeometry relative="1" as="geometry" />
        </mxCell>
        <mxCell id="RAqRMx-kZ3DzzNGbXhLO-91" value="" style="edgeStyle=orthogonalEdgeStyle;rounded=0;orthogonalLoop=1;jettySize=auto;html=1;" edge="1" parent="1" source="RAqRMx-kZ3DzzNGbXhLO-36" target="RAqRMx-kZ3DzzNGbXhLO-90">
          <mxGeometry relative="1" as="geometry" />
        </mxCell>
        <mxCell id="RAqRMx-kZ3DzzNGbXhLO-36" value="is it %c?" style="rhombus;whiteSpace=wrap;html=1;rounded=0;" vertex="1" parent="1">
          <mxGeometry x="460" y="990" width="120" height="110" as="geometry" />
        </mxCell>
        <mxCell id="RAqRMx-kZ3DzzNGbXhLO-44" value="" style="edgeStyle=orthogonalEdgeStyle;rounded=0;orthogonalLoop=1;jettySize=auto;html=1;" edge="1" parent="1" source="RAqRMx-kZ3DzzNGbXhLO-41" target="RAqRMx-kZ3DzzNGbXhLO-43">
          <mxGeometry relative="1" as="geometry" />
        </mxCell>
        <mxCell id="RAqRMx-kZ3DzzNGbXhLO-93" value="" style="edgeStyle=orthogonalEdgeStyle;rounded=0;orthogonalLoop=1;jettySize=auto;html=1;" edge="1" parent="1" source="RAqRMx-kZ3DzzNGbXhLO-41" target="RAqRMx-kZ3DzzNGbXhLO-92">
          <mxGeometry relative="1" as="geometry" />
        </mxCell>
        <mxCell id="RAqRMx-kZ3DzzNGbXhLO-41" value="is it %x?" style="rhombus;whiteSpace=wrap;html=1;rounded=0;" vertex="1" parent="1">
          <mxGeometry x="460" y="1140" width="120" height="110" as="geometry" />
        </mxCell>
        <mxCell id="RAqRMx-kZ3DzzNGbXhLO-46" value="" style="edgeStyle=orthogonalEdgeStyle;rounded=0;orthogonalLoop=1;jettySize=auto;html=1;" edge="1" parent="1" source="RAqRMx-kZ3DzzNGbXhLO-43" target="RAqRMx-kZ3DzzNGbXhLO-45">
          <mxGeometry relative="1" as="geometry" />
        </mxCell>
        <mxCell id="RAqRMx-kZ3DzzNGbXhLO-95" value="" style="edgeStyle=orthogonalEdgeStyle;rounded=0;orthogonalLoop=1;jettySize=auto;html=1;" edge="1" parent="1" source="RAqRMx-kZ3DzzNGbXhLO-43" target="RAqRMx-kZ3DzzNGbXhLO-94">
          <mxGeometry relative="1" as="geometry" />
        </mxCell>
        <mxCell id="RAqRMx-kZ3DzzNGbXhLO-43" value="is it %X" style="rhombus;whiteSpace=wrap;html=1;rounded=0;" vertex="1" parent="1">
          <mxGeometry x="460" y="1280" width="120" height="110" as="geometry" />
        </mxCell>
        <mxCell id="RAqRMx-kZ3DzzNGbXhLO-48" value="" style="edgeStyle=orthogonalEdgeStyle;rounded=0;orthogonalLoop=1;jettySize=auto;html=1;" edge="1" parent="1" source="RAqRMx-kZ3DzzNGbXhLO-45" target="RAqRMx-kZ3DzzNGbXhLO-47">
          <mxGeometry relative="1" as="geometry" />
        </mxCell>
        <mxCell id="RAqRMx-kZ3DzzNGbXhLO-190" style="edgeStyle=orthogonalEdgeStyle;rounded=0;orthogonalLoop=1;jettySize=auto;html=1;exitX=0;exitY=0.5;exitDx=0;exitDy=0;entryX=0;entryY=0.5;entryDx=0;entryDy=0;" edge="1" parent="1" source="RAqRMx-kZ3DzzNGbXhLO-45" target="RAqRMx-kZ3DzzNGbXhLO-23">
          <mxGeometry relative="1" as="geometry" />
        </mxCell>
        <mxCell id="RAqRMx-kZ3DzzNGbXhLO-45" value="is it %%?" style="rhombus;whiteSpace=wrap;html=1;rounded=0;" vertex="1" parent="1">
          <mxGeometry x="460" y="1430" width="120" height="110" as="geometry" />
        </mxCell>
        <mxCell id="RAqRMx-kZ3DzzNGbXhLO-99" value="" style="edgeStyle=orthogonalEdgeStyle;rounded=0;orthogonalLoop=1;jettySize=auto;html=1;" edge="1" parent="1" source="RAqRMx-kZ3DzzNGbXhLO-47" target="RAqRMx-kZ3DzzNGbXhLO-98">
          <mxGeometry relative="1" as="geometry" />
        </mxCell>
        <mxCell id="RAqRMx-kZ3DzzNGbXhLO-176" style="edgeStyle=orthogonalEdgeStyle;rounded=0;orthogonalLoop=1;jettySize=auto;html=1;exitX=0.5;exitY=1;exitDx=0;exitDy=0;entryX=0;entryY=0.5;entryDx=0;entryDy=0;" edge="1" parent="1" source="RAqRMx-kZ3DzzNGbXhLO-47" target="RAqRMx-kZ3DzzNGbXhLO-175">
          <mxGeometry relative="1" as="geometry" />
        </mxCell>
        <mxCell id="RAqRMx-kZ3DzzNGbXhLO-47" value="is it %n?" style="rhombus;whiteSpace=wrap;html=1;rounded=0;" vertex="1" parent="1">
          <mxGeometry x="460" y="1580" width="120" height="100" as="geometry" />
        </mxCell>
        <mxCell id="RAqRMx-kZ3DzzNGbXhLO-49" value="NO" style="rhombus;whiteSpace=wrap;html=1;fillColor=none;strokeColor=none;gradientColor=none;rounded=0;" vertex="1" parent="1">
          <mxGeometry x="510" y="520" width="60" height="20" as="geometry" />
        </mxCell>
        <mxCell id="RAqRMx-kZ3DzzNGbXhLO-50" value="NO" style="rhombus;whiteSpace=wrap;html=1;fillColor=none;strokeColor=none;gradientColor=none;rounded=0;" vertex="1" parent="1">
          <mxGeometry x="510" y="670" width="60" height="20" as="geometry" />
        </mxCell>
        <mxCell id="RAqRMx-kZ3DzzNGbXhLO-51" value="NO" style="rhombus;whiteSpace=wrap;html=1;fillColor=none;strokeColor=none;gradientColor=none;rounded=0;" vertex="1" parent="1">
          <mxGeometry x="510" y="810" width="60" height="20" as="geometry" />
        </mxCell>
        <mxCell id="RAqRMx-kZ3DzzNGbXhLO-52" value="NO" style="rhombus;whiteSpace=wrap;html=1;fillColor=none;strokeColor=none;gradientColor=none;rounded=0;" vertex="1" parent="1">
          <mxGeometry x="510" y="950" width="60" height="20" as="geometry" />
        </mxCell>
        <mxCell id="RAqRMx-kZ3DzzNGbXhLO-53" value="NO" style="rhombus;whiteSpace=wrap;html=1;fillColor=none;strokeColor=none;gradientColor=none;rounded=0;" vertex="1" parent="1">
          <mxGeometry x="520" y="1100" width="60" height="20" as="geometry" />
        </mxCell>
        <mxCell id="RAqRMx-kZ3DzzNGbXhLO-54" value="NO" style="rhombus;whiteSpace=wrap;html=1;fillColor=none;strokeColor=none;gradientColor=none;rounded=0;" vertex="1" parent="1">
          <mxGeometry x="520" y="1250" width="60" height="20" as="geometry" />
        </mxCell>
        <mxCell id="RAqRMx-kZ3DzzNGbXhLO-55" value="NO" style="rhombus;whiteSpace=wrap;html=1;fillColor=none;strokeColor=none;gradientColor=none;rounded=0;" vertex="1" parent="1">
          <mxGeometry x="510" y="1400" width="60" height="20" as="geometry" />
        </mxCell>
        <mxCell id="RAqRMx-kZ3DzzNGbXhLO-56" value="NO" style="rhombus;whiteSpace=wrap;html=1;fillColor=none;strokeColor=none;gradientColor=none;rounded=0;" vertex="1" parent="1">
          <mxGeometry x="510" y="1540" width="60" height="20" as="geometry" />
        </mxCell>
        <mxCell id="RAqRMx-kZ3DzzNGbXhLO-111" style="edgeStyle=orthogonalEdgeStyle;rounded=0;orthogonalLoop=1;jettySize=auto;html=1;exitX=0.5;exitY=1;exitDx=0;exitDy=0;entryX=0;entryY=0.5;entryDx=0;entryDy=0;" edge="1" parent="1" source="RAqRMx-kZ3DzzNGbXhLO-57" target="RAqRMx-kZ3DzzNGbXhLO-110">
          <mxGeometry relative="1" as="geometry">
            <mxPoint x="770" y="530" as="targetPoint" />
          </mxGeometry>
        </mxCell>
        <mxCell id="RAqRMx-kZ3DzzNGbXhLO-140" value="" style="edgeStyle=orthogonalEdgeStyle;rounded=0;orthogonalLoop=1;jettySize=auto;html=1;" edge="1" parent="1" source="RAqRMx-kZ3DzzNGbXhLO-57" target="RAqRMx-kZ3DzzNGbXhLO-139">
          <mxGeometry relative="1" as="geometry" />
        </mxCell>
        <mxCell id="RAqRMx-kZ3DzzNGbXhLO-57" value="check if argument is of pointer string type" style="rhombus;whiteSpace=wrap;html=1;rounded=0;" vertex="1" parent="1">
          <mxGeometry x="660" y="400" width="120" height="110" as="geometry" />
        </mxCell>
        <mxCell id="RAqRMx-kZ3DzzNGbXhLO-61" value="Yes" style="text;html=1;strokeColor=none;fillColor=none;align=center;verticalAlign=middle;whiteSpace=wrap;rounded=0;" vertex="1" parent="1">
          <mxGeometry x="590" y="430" width="60" height="20" as="geometry" />
        </mxCell>
        <mxCell id="RAqRMx-kZ3DzzNGbXhLO-123" style="edgeStyle=orthogonalEdgeStyle;rounded=0;orthogonalLoop=1;jettySize=auto;html=1;exitX=0.5;exitY=1;exitDx=0;exitDy=0;" edge="1" parent="1" source="RAqRMx-kZ3DzzNGbXhLO-62" target="RAqRMx-kZ3DzzNGbXhLO-112">
          <mxGeometry relative="1" as="geometry" />
        </mxCell>
        <mxCell id="RAqRMx-kZ3DzzNGbXhLO-142" value="" style="edgeStyle=orthogonalEdgeStyle;rounded=0;orthogonalLoop=1;jettySize=auto;html=1;" edge="1" parent="1" source="RAqRMx-kZ3DzzNGbXhLO-62" target="RAqRMx-kZ3DzzNGbXhLO-141">
          <mxGeometry relative="1" as="geometry" />
        </mxCell>
        <mxCell id="RAqRMx-kZ3DzzNGbXhLO-62" value="is the argument of int type?" style="rhombus;whiteSpace=wrap;html=1;rounded=0;" vertex="1" parent="1">
          <mxGeometry x="660" y="550" width="120" height="110" as="geometry" />
        </mxCell>
        <mxCell id="RAqRMx-kZ3DzzNGbXhLO-122" style="edgeStyle=orthogonalEdgeStyle;rounded=0;orthogonalLoop=1;jettySize=auto;html=1;exitX=0.5;exitY=1;exitDx=0;exitDy=0;entryX=0;entryY=0.75;entryDx=0;entryDy=0;" edge="1" parent="1" source="RAqRMx-kZ3DzzNGbXhLO-64" target="RAqRMx-kZ3DzzNGbXhLO-114">
          <mxGeometry relative="1" as="geometry" />
        </mxCell>
        <mxCell id="RAqRMx-kZ3DzzNGbXhLO-145" value="" style="edgeStyle=orthogonalEdgeStyle;rounded=0;orthogonalLoop=1;jettySize=auto;html=1;" edge="1" parent="1" source="RAqRMx-kZ3DzzNGbXhLO-64" target="RAqRMx-kZ3DzzNGbXhLO-144">
          <mxGeometry relative="1" as="geometry" />
        </mxCell>
        <mxCell id="RAqRMx-kZ3DzzNGbXhLO-64" value="is the argument a double type?" style="rhombus;whiteSpace=wrap;html=1;rounded=0;" vertex="1" parent="1">
          <mxGeometry x="660" y="700" width="120" height="110" as="geometry" />
        </mxCell>
        <mxCell id="RAqRMx-kZ3DzzNGbXhLO-121" style="edgeStyle=orthogonalEdgeStyle;rounded=0;orthogonalLoop=1;jettySize=auto;html=1;exitX=0.5;exitY=1;exitDx=0;exitDy=0;entryX=0;entryY=0.75;entryDx=0;entryDy=0;" edge="1" parent="1" source="RAqRMx-kZ3DzzNGbXhLO-66" target="RAqRMx-kZ3DzzNGbXhLO-115">
          <mxGeometry relative="1" as="geometry" />
        </mxCell>
        <mxCell id="RAqRMx-kZ3DzzNGbXhLO-147" value="" style="edgeStyle=orthogonalEdgeStyle;rounded=0;orthogonalLoop=1;jettySize=auto;html=1;" edge="1" parent="1" source="RAqRMx-kZ3DzzNGbXhLO-66" target="RAqRMx-kZ3DzzNGbXhLO-146">
          <mxGeometry relative="1" as="geometry" />
        </mxCell>
        <mxCell id="RAqRMx-kZ3DzzNGbXhLO-66" value="is the the type unsigned integer?" style="rhombus;whiteSpace=wrap;html=1;rounded=0;" vertex="1" parent="1">
          <mxGeometry x="660" y="840" width="120" height="110" as="geometry" />
        </mxCell>
        <mxCell id="RAqRMx-kZ3DzzNGbXhLO-76" value="" style="edgeStyle=orthogonalEdgeStyle;rounded=0;orthogonalLoop=1;jettySize=auto;html=1;" edge="1" parent="1" source="RAqRMx-kZ3DzzNGbXhLO-73" target="RAqRMx-kZ3DzzNGbXhLO-75">
          <mxGeometry relative="1" as="geometry" />
        </mxCell>
        <mxCell id="RAqRMx-kZ3DzzNGbXhLO-77" value="" style="edgeStyle=orthogonalEdgeStyle;rounded=0;orthogonalLoop=1;jettySize=auto;html=1;" edge="1" parent="1" source="RAqRMx-kZ3DzzNGbXhLO-73" target="RAqRMx-kZ3DzzNGbXhLO-13">
          <mxGeometry relative="1" as="geometry" />
        </mxCell>
        <mxCell id="RAqRMx-kZ3DzzNGbXhLO-86" value="" style="edgeStyle=orthogonalEdgeStyle;rounded=0;orthogonalLoop=1;jettySize=auto;html=1;" edge="1" parent="1" source="RAqRMx-kZ3DzzNGbXhLO-73" target="RAqRMx-kZ3DzzNGbXhLO-2">
          <mxGeometry relative="1" as="geometry" />
        </mxCell>
        <mxCell id="RAqRMx-kZ3DzzNGbXhLO-73" value="&lt;div align=&quot;center&quot;&gt;&lt;font style=&quot;font-size: 11px;&quot;&gt;is format string NULL character?&lt;/font&gt;&lt;/div&gt;" style="rhombus;whiteSpace=wrap;html=1;align=center;" vertex="1" parent="1">
          <mxGeometry x="270" y="190" width="120" height="120" as="geometry" />
        </mxCell>
        <mxCell id="RAqRMx-kZ3DzzNGbXhLO-75" value="Exit printf function" style="whiteSpace=wrap;html=1;" vertex="1" parent="1">
          <mxGeometry x="70" y="220" width="120" height="60" as="geometry" />
        </mxCell>
        <mxCell id="RAqRMx-kZ3DzzNGbXhLO-120" style="edgeStyle=orthogonalEdgeStyle;rounded=0;orthogonalLoop=1;jettySize=auto;html=1;exitX=0.5;exitY=1;exitDx=0;exitDy=0;entryX=0;entryY=0.75;entryDx=0;entryDy=0;" edge="1" parent="1" source="RAqRMx-kZ3DzzNGbXhLO-90" target="RAqRMx-kZ3DzzNGbXhLO-116">
          <mxGeometry relative="1" as="geometry" />
        </mxCell>
        <mxCell id="RAqRMx-kZ3DzzNGbXhLO-149" value="" style="edgeStyle=orthogonalEdgeStyle;rounded=0;orthogonalLoop=1;jettySize=auto;html=1;" edge="1" parent="1" source="RAqRMx-kZ3DzzNGbXhLO-90" target="RAqRMx-kZ3DzzNGbXhLO-148">
          <mxGeometry relative="1" as="geometry" />
        </mxCell>
        <mxCell id="RAqRMx-kZ3DzzNGbXhLO-90" value="is it a of char type" style="rhombus;whiteSpace=wrap;html=1;rounded=0;aspect=fixed;" vertex="1" parent="1">
          <mxGeometry x="660" y="990" width="120" height="110" as="geometry" />
        </mxCell>
        <mxCell id="RAqRMx-kZ3DzzNGbXhLO-119" style="edgeStyle=orthogonalEdgeStyle;rounded=0;orthogonalLoop=1;jettySize=auto;html=1;exitX=0.5;exitY=1;exitDx=0;exitDy=0;entryX=0;entryY=0.5;entryDx=0;entryDy=0;" edge="1" parent="1" source="RAqRMx-kZ3DzzNGbXhLO-92" target="RAqRMx-kZ3DzzNGbXhLO-117">
          <mxGeometry relative="1" as="geometry" />
        </mxCell>
        <mxCell id="RAqRMx-kZ3DzzNGbXhLO-151" value="" style="edgeStyle=orthogonalEdgeStyle;rounded=0;orthogonalLoop=1;jettySize=auto;html=1;" edge="1" parent="1" source="RAqRMx-kZ3DzzNGbXhLO-92" target="RAqRMx-kZ3DzzNGbXhLO-150">
          <mxGeometry relative="1" as="geometry" />
        </mxCell>
        <mxCell id="RAqRMx-kZ3DzzNGbXhLO-92" value="&lt;div&gt;is it of int type?&lt;/div&gt;" style="rhombus;whiteSpace=wrap;html=1;rounded=0;aspect=fixed;" vertex="1" parent="1">
          <mxGeometry x="674" y="1140" width="120" height="110" as="geometry" />
        </mxCell>
        <mxCell id="RAqRMx-kZ3DzzNGbXhLO-125" style="edgeStyle=orthogonalEdgeStyle;rounded=0;orthogonalLoop=1;jettySize=auto;html=1;exitX=0.5;exitY=1;exitDx=0;exitDy=0;entryX=0;entryY=0.75;entryDx=0;entryDy=0;" edge="1" parent="1" source="RAqRMx-kZ3DzzNGbXhLO-94" target="RAqRMx-kZ3DzzNGbXhLO-124">
          <mxGeometry relative="1" as="geometry" />
        </mxCell>
        <mxCell id="RAqRMx-kZ3DzzNGbXhLO-153" value="" style="edgeStyle=orthogonalEdgeStyle;rounded=0;orthogonalLoop=1;jettySize=auto;html=1;" edge="1" parent="1" source="RAqRMx-kZ3DzzNGbXhLO-94" target="RAqRMx-kZ3DzzNGbXhLO-152">
          <mxGeometry relative="1" as="geometry" />
        </mxCell>
        <mxCell id="RAqRMx-kZ3DzzNGbXhLO-94" value="is it of int type?" style="rhombus;whiteSpace=wrap;html=1;rounded=0;aspect=fixed;" vertex="1" parent="1">
          <mxGeometry x="674" y="1280" width="120" height="110" as="geometry" />
        </mxCell>
        <mxCell id="RAqRMx-kZ3DzzNGbXhLO-166" style="edgeStyle=orthogonalEdgeStyle;rounded=0;orthogonalLoop=1;jettySize=auto;html=1;exitX=1;exitY=0.5;exitDx=0;exitDy=0;entryX=0;entryY=0.5;entryDx=0;entryDy=0;" edge="1" parent="1" source="RAqRMx-kZ3DzzNGbXhLO-98" target="RAqRMx-kZ3DzzNGbXhLO-165">
          <mxGeometry relative="1" as="geometry" />
        </mxCell>
        <mxCell id="RAqRMx-kZ3DzzNGbXhLO-98" value="create memory store the buffer and set the argument to the pointer address" style="rounded=0;whiteSpace=wrap;html=1;" vertex="1" parent="1">
          <mxGeometry x="674" y="1592.5" width="120" height="75" as="geometry" />
        </mxCell>
        <mxCell id="RAqRMx-kZ3DzzNGbXhLO-105" value="No" style="text;html=1;strokeColor=none;fillColor=none;align=center;verticalAlign=middle;whiteSpace=wrap;rounded=0;" vertex="1" parent="1">
          <mxGeometry x="270" y="340" width="60" height="30" as="geometry" />
        </mxCell>
        <mxCell id="RAqRMx-kZ3DzzNGbXhLO-107" value="Yes" style="text;html=1;strokeColor=none;fillColor=none;align=center;verticalAlign=middle;whiteSpace=wrap;rounded=0;" vertex="1" parent="1">
          <mxGeometry x="390" y="425" width="60" height="30" as="geometry" />
        </mxCell>
        <mxCell id="RAqRMx-kZ3DzzNGbXhLO-110" value="report error" style="rounded=0;whiteSpace=wrap;html=1;" vertex="1" parent="1">
          <mxGeometry x="800" y="505" width="80" height="40" as="geometry" />
        </mxCell>
        <mxCell id="RAqRMx-kZ3DzzNGbXhLO-112" value="report error" style="rounded=0;whiteSpace=wrap;html=1;" vertex="1" parent="1">
          <mxGeometry x="790" y="660" width="80" height="40" as="geometry" />
        </mxCell>
        <mxCell id="RAqRMx-kZ3DzzNGbXhLO-114" value="report error" style="rounded=0;whiteSpace=wrap;html=1;" vertex="1" parent="1">
          <mxGeometry x="794" y="800" width="80" height="40" as="geometry" />
        </mxCell>
        <mxCell id="RAqRMx-kZ3DzzNGbXhLO-115" value="report error" style="rounded=0;whiteSpace=wrap;html=1;" vertex="1" parent="1">
          <mxGeometry x="794" y="950" width="80" height="40" as="geometry" />
        </mxCell>
        <mxCell id="RAqRMx-kZ3DzzNGbXhLO-116" value="report error" style="rounded=0;whiteSpace=wrap;html=1;" vertex="1" parent="1">
          <mxGeometry x="800" y="1090" width="80" height="40" as="geometry" />
        </mxCell>
        <mxCell id="RAqRMx-kZ3DzzNGbXhLO-117" value="report error" style="rounded=0;whiteSpace=wrap;html=1;" vertex="1" parent="1">
          <mxGeometry x="794" y="1250" width="80" height="40" as="geometry" />
        </mxCell>
        <mxCell id="RAqRMx-kZ3DzzNGbXhLO-124" value="report error" style="rounded=0;whiteSpace=wrap;html=1;" vertex="1" parent="1">
          <mxGeometry x="794" y="1380" width="80" height="40" as="geometry" />
        </mxCell>
        <mxCell id="RAqRMx-kZ3DzzNGbXhLO-126" value="No" style="text;html=1;strokeColor=none;fillColor=none;align=center;verticalAlign=middle;whiteSpace=wrap;rounded=0;" vertex="1" parent="1">
          <mxGeometry x="734" y="500" width="60" height="30" as="geometry" />
        </mxCell>
        <mxCell id="RAqRMx-kZ3DzzNGbXhLO-128" value="No" style="text;html=1;strokeColor=none;fillColor=none;align=center;verticalAlign=middle;whiteSpace=wrap;rounded=0;" vertex="1" parent="1">
          <mxGeometry x="720" y="650" width="60" height="30" as="geometry" />
        </mxCell>
        <mxCell id="RAqRMx-kZ3DzzNGbXhLO-129" value="No" style="text;html=1;strokeColor=none;fillColor=none;align=center;verticalAlign=middle;whiteSpace=wrap;rounded=0;" vertex="1" parent="1">
          <mxGeometry x="720" y="800" width="60" height="30" as="geometry" />
        </mxCell>
        <mxCell id="RAqRMx-kZ3DzzNGbXhLO-130" value="No" style="text;html=1;strokeColor=none;fillColor=none;align=center;verticalAlign=middle;whiteSpace=wrap;rounded=0;" vertex="1" parent="1">
          <mxGeometry x="720" y="950" width="60" height="30" as="geometry" />
        </mxCell>
        <mxCell id="RAqRMx-kZ3DzzNGbXhLO-131" value="No" style="text;html=1;strokeColor=none;fillColor=none;align=center;verticalAlign=middle;whiteSpace=wrap;rounded=0;" vertex="1" parent="1">
          <mxGeometry x="730" y="1090" width="60" height="30" as="geometry" />
        </mxCell>
        <mxCell id="RAqRMx-kZ3DzzNGbXhLO-132" value="No" style="text;html=1;strokeColor=none;fillColor=none;align=center;verticalAlign=middle;whiteSpace=wrap;rounded=0;" vertex="1" parent="1">
          <mxGeometry x="734" y="1240" width="60" height="30" as="geometry" />
        </mxCell>
        <mxCell id="RAqRMx-kZ3DzzNGbXhLO-133" value="No" style="text;html=1;strokeColor=none;fillColor=none;align=center;verticalAlign=middle;whiteSpace=wrap;rounded=0;" vertex="1" parent="1">
          <mxGeometry x="734" y="1380" width="60" height="30" as="geometry" />
        </mxCell>
        <mxCell id="RAqRMx-kZ3DzzNGbXhLO-155" style="edgeStyle=orthogonalEdgeStyle;rounded=0;orthogonalLoop=1;jettySize=auto;html=1;exitX=0.5;exitY=1;exitDx=0;exitDy=0;entryX=0;entryY=0.5;entryDx=0;entryDy=0;" edge="1" parent="1" source="RAqRMx-kZ3DzzNGbXhLO-134" target="RAqRMx-kZ3DzzNGbXhLO-13">
          <mxGeometry relative="1" as="geometry" />
        </mxCell>
        <mxCell id="RAqRMx-kZ3DzzNGbXhLO-134" value="Connector A" style="ellipse;whiteSpace=wrap;html=1;aspect=fixed;" vertex="1" parent="1">
          <mxGeometry x="190" y="290" width="80" height="80" as="geometry" />
        </mxCell>
        <mxCell id="RAqRMx-kZ3DzzNGbXhLO-136" value="Connector A" style="ellipse;whiteSpace=wrap;html=1;aspect=fixed;" vertex="1" parent="1">
          <mxGeometry x="1120" y="415" width="80" height="80" as="geometry" />
        </mxCell>
        <mxCell id="RAqRMx-kZ3DzzNGbXhLO-156" style="edgeStyle=orthogonalEdgeStyle;rounded=0;orthogonalLoop=1;jettySize=auto;html=1;exitX=1;exitY=0.5;exitDx=0;exitDy=0;entryX=0;entryY=0.5;entryDx=0;entryDy=0;" edge="1" parent="1" source="RAqRMx-kZ3DzzNGbXhLO-139" target="RAqRMx-kZ3DzzNGbXhLO-136">
          <mxGeometry relative="1" as="geometry" />
        </mxCell>
        <mxCell id="RAqRMx-kZ3DzzNGbXhLO-139" value="add Argument to buffer" style="whiteSpace=wrap;html=1;rounded=0;" vertex="1" parent="1">
          <mxGeometry x="860" y="425" width="140" height="60" as="geometry" />
        </mxCell>
        <mxCell id="RAqRMx-kZ3DzzNGbXhLO-157" style="edgeStyle=orthogonalEdgeStyle;rounded=0;orthogonalLoop=1;jettySize=auto;html=1;exitX=1;exitY=0.5;exitDx=0;exitDy=0;entryX=0.5;entryY=1;entryDx=0;entryDy=0;" edge="1" parent="1" source="RAqRMx-kZ3DzzNGbXhLO-141" target="RAqRMx-kZ3DzzNGbXhLO-136">
          <mxGeometry relative="1" as="geometry" />
        </mxCell>
        <mxCell id="RAqRMx-kZ3DzzNGbXhLO-141" value="&lt;div&gt;add Argument to buffer&lt;/div&gt;" style="whiteSpace=wrap;html=1;rounded=0;" vertex="1" parent="1">
          <mxGeometry x="860" y="575" width="120" height="60" as="geometry" />
        </mxCell>
        <mxCell id="RAqRMx-kZ3DzzNGbXhLO-158" style="edgeStyle=orthogonalEdgeStyle;rounded=0;orthogonalLoop=1;jettySize=auto;html=1;exitX=1;exitY=0.5;exitDx=0;exitDy=0;entryX=0.5;entryY=1;entryDx=0;entryDy=0;" edge="1" parent="1" source="RAqRMx-kZ3DzzNGbXhLO-144" target="RAqRMx-kZ3DzzNGbXhLO-136">
          <mxGeometry relative="1" as="geometry" />
        </mxCell>
        <mxCell id="RAqRMx-kZ3DzzNGbXhLO-144" value="Add Argument to buffer" style="whiteSpace=wrap;html=1;rounded=0;" vertex="1" parent="1">
          <mxGeometry x="860" y="725" width="120" height="60" as="geometry" />
        </mxCell>
        <mxCell id="RAqRMx-kZ3DzzNGbXhLO-159" style="edgeStyle=orthogonalEdgeStyle;rounded=0;orthogonalLoop=1;jettySize=auto;html=1;exitX=1;exitY=0.5;exitDx=0;exitDy=0;entryX=0.5;entryY=1;entryDx=0;entryDy=0;" edge="1" parent="1" source="RAqRMx-kZ3DzzNGbXhLO-146" target="RAqRMx-kZ3DzzNGbXhLO-136">
          <mxGeometry relative="1" as="geometry" />
        </mxCell>
        <mxCell id="RAqRMx-kZ3DzzNGbXhLO-146" value="add Argument to buffer" style="whiteSpace=wrap;html=1;rounded=0;" vertex="1" parent="1">
          <mxGeometry x="860" y="865" width="120" height="60" as="geometry" />
        </mxCell>
        <mxCell id="RAqRMx-kZ3DzzNGbXhLO-160" style="edgeStyle=orthogonalEdgeStyle;rounded=0;orthogonalLoop=1;jettySize=auto;html=1;exitX=1;exitY=0.5;exitDx=0;exitDy=0;entryX=0.5;entryY=1;entryDx=0;entryDy=0;" edge="1" parent="1" source="RAqRMx-kZ3DzzNGbXhLO-148" target="RAqRMx-kZ3DzzNGbXhLO-136">
          <mxGeometry relative="1" as="geometry" />
        </mxCell>
        <mxCell id="RAqRMx-kZ3DzzNGbXhLO-148" value="Add Argument to buffer" style="whiteSpace=wrap;html=1;rounded=0;" vertex="1" parent="1">
          <mxGeometry x="860" y="1015" width="120" height="60" as="geometry" />
        </mxCell>
        <mxCell id="RAqRMx-kZ3DzzNGbXhLO-161" style="edgeStyle=orthogonalEdgeStyle;rounded=0;orthogonalLoop=1;jettySize=auto;html=1;exitX=1;exitY=0.5;exitDx=0;exitDy=0;entryX=0.5;entryY=1;entryDx=0;entryDy=0;" edge="1" parent="1" source="RAqRMx-kZ3DzzNGbXhLO-150" target="RAqRMx-kZ3DzzNGbXhLO-136">
          <mxGeometry relative="1" as="geometry" />
        </mxCell>
        <mxCell id="RAqRMx-kZ3DzzNGbXhLO-150" value="&lt;div&gt;add Argument to buffer&lt;/div&gt;" style="whiteSpace=wrap;html=1;rounded=0;" vertex="1" parent="1">
          <mxGeometry x="874" y="1165" width="120" height="60" as="geometry" />
        </mxCell>
        <mxCell id="RAqRMx-kZ3DzzNGbXhLO-162" style="edgeStyle=orthogonalEdgeStyle;rounded=0;orthogonalLoop=1;jettySize=auto;html=1;exitX=1;exitY=0.5;exitDx=0;exitDy=0;entryX=0.5;entryY=1;entryDx=0;entryDy=0;" edge="1" parent="1" source="RAqRMx-kZ3DzzNGbXhLO-152" target="RAqRMx-kZ3DzzNGbXhLO-136">
          <mxGeometry relative="1" as="geometry" />
        </mxCell>
        <mxCell id="RAqRMx-kZ3DzzNGbXhLO-152" value="add Argument to buffer" style="whiteSpace=wrap;html=1;rounded=0;" vertex="1" parent="1">
          <mxGeometry x="874" y="1305" width="120" height="60" as="geometry" />
        </mxCell>
        <mxCell id="RAqRMx-kZ3DzzNGbXhLO-165" value="Connector A" style="ellipse;whiteSpace=wrap;html=1;aspect=fixed;" vertex="1" parent="1">
          <mxGeometry x="920" y="1590" width="80" height="80" as="geometry" />
        </mxCell>
        <mxCell id="RAqRMx-kZ3DzzNGbXhLO-167" value="Yes" style="text;html=1;strokeColor=none;fillColor=none;align=center;verticalAlign=middle;whiteSpace=wrap;rounded=0;" vertex="1" parent="1">
          <mxGeometry x="210" y="220" width="60" height="30" as="geometry" />
        </mxCell>
        <mxCell id="RAqRMx-kZ3DzzNGbXhLO-168" value="Yes" style="text;html=1;strokeColor=none;fillColor=none;align=center;verticalAlign=middle;whiteSpace=wrap;rounded=0;" vertex="1" parent="1">
          <mxGeometry x="790" y="430" width="60" height="20" as="geometry" />
        </mxCell>
        <mxCell id="RAqRMx-kZ3DzzNGbXhLO-169" value="Yes" style="text;html=1;strokeColor=none;fillColor=none;align=center;verticalAlign=middle;whiteSpace=wrap;rounded=0;" vertex="1" parent="1">
          <mxGeometry x="790" y="740" width="60" height="20" as="geometry" />
        </mxCell>
        <mxCell id="RAqRMx-kZ3DzzNGbXhLO-170" value="Yes" style="text;html=1;strokeColor=none;fillColor=none;align=center;verticalAlign=middle;whiteSpace=wrap;rounded=0;" vertex="1" parent="1">
          <mxGeometry x="790" y="880" width="60" height="20" as="geometry" />
        </mxCell>
        <mxCell id="RAqRMx-kZ3DzzNGbXhLO-171" value="Yes" style="text;html=1;strokeColor=none;fillColor=none;align=center;verticalAlign=middle;whiteSpace=wrap;rounded=0;" vertex="1" parent="1">
          <mxGeometry x="790" y="1030" width="60" height="20" as="geometry" />
        </mxCell>
        <mxCell id="RAqRMx-kZ3DzzNGbXhLO-172" value="Yes" style="text;html=1;strokeColor=none;fillColor=none;align=center;verticalAlign=middle;whiteSpace=wrap;rounded=0;" vertex="1" parent="1">
          <mxGeometry x="804" y="1180" width="60" height="20" as="geometry" />
        </mxCell>
        <mxCell id="RAqRMx-kZ3DzzNGbXhLO-173" value="Yes" style="text;html=1;strokeColor=none;fillColor=none;align=center;verticalAlign=middle;whiteSpace=wrap;rounded=0;" vertex="1" parent="1">
          <mxGeometry x="804" y="1320" width="60" height="20" as="geometry" />
        </mxCell>
        <mxCell id="RAqRMx-kZ3DzzNGbXhLO-174" value="Yes" style="text;html=1;strokeColor=none;fillColor=none;align=center;verticalAlign=middle;whiteSpace=wrap;rounded=0;" vertex="1" parent="1">
          <mxGeometry x="590" y="1610" width="60" height="20" as="geometry" />
        </mxCell>
        <mxCell id="RAqRMx-kZ3DzzNGbXhLO-175" value="report error" style="rounded=0;whiteSpace=wrap;html=1;" vertex="1" parent="1">
          <mxGeometry x="580" y="1680" width="80" height="40" as="geometry" />
        </mxCell>
        <mxCell id="RAqRMx-kZ3DzzNGbXhLO-177" value="Yes" style="text;html=1;strokeColor=none;fillColor=none;align=center;verticalAlign=middle;whiteSpace=wrap;rounded=0;" vertex="1" parent="1">
          <mxGeometry x="790" y="585" width="60" height="20" as="geometry" />
        </mxCell>
        <mxCell id="RAqRMx-kZ3DzzNGbXhLO-178" value="Yes" style="text;html=1;strokeColor=none;fillColor=none;align=center;verticalAlign=middle;whiteSpace=wrap;rounded=0;" vertex="1" parent="1">
          <mxGeometry x="790" y="740" width="60" height="20" as="geometry" />
        </mxCell>
        <mxCell id="RAqRMx-kZ3DzzNGbXhLO-179" value="Yes" style="text;html=1;strokeColor=none;fillColor=none;align=center;verticalAlign=middle;whiteSpace=wrap;rounded=0;" vertex="1" parent="1">
          <mxGeometry x="590" y="585" width="60" height="20" as="geometry" />
        </mxCell>
        <mxCell id="RAqRMx-kZ3DzzNGbXhLO-180" value="Yes" style="text;html=1;strokeColor=none;fillColor=none;align=center;verticalAlign=middle;whiteSpace=wrap;rounded=0;" vertex="1" parent="1">
          <mxGeometry x="790" y="895" width="60" height="20" as="geometry" />
        </mxCell>
        <mxCell id="RAqRMx-kZ3DzzNGbXhLO-181" value="Yes" style="text;html=1;strokeColor=none;fillColor=none;align=center;verticalAlign=middle;whiteSpace=wrap;rounded=0;" vertex="1" parent="1">
          <mxGeometry x="590" y="740" width="60" height="20" as="geometry" />
        </mxCell>
        <mxCell id="RAqRMx-kZ3DzzNGbXhLO-182" value="Yes" style="text;html=1;strokeColor=none;fillColor=none;align=center;verticalAlign=middle;whiteSpace=wrap;rounded=0;" vertex="1" parent="1">
          <mxGeometry x="790" y="1035" width="60" height="20" as="geometry" />
        </mxCell>
        <mxCell id="RAqRMx-kZ3DzzNGbXhLO-183" value="Yes" style="text;html=1;strokeColor=none;fillColor=none;align=center;verticalAlign=middle;whiteSpace=wrap;rounded=0;" vertex="1" parent="1">
          <mxGeometry x="590" y="880" width="60" height="20" as="geometry" />
        </mxCell>
        <mxCell id="RAqRMx-kZ3DzzNGbXhLO-184" value="Yes" style="text;html=1;strokeColor=none;fillColor=none;align=center;verticalAlign=middle;whiteSpace=wrap;rounded=0;" vertex="1" parent="1">
          <mxGeometry x="790" y="1180" width="60" height="20" as="geometry" />
        </mxCell>
        <mxCell id="RAqRMx-kZ3DzzNGbXhLO-185" value="Yes" style="text;html=1;strokeColor=none;fillColor=none;align=center;verticalAlign=middle;whiteSpace=wrap;rounded=0;" vertex="1" parent="1">
          <mxGeometry x="590" y="1025" width="60" height="20" as="geometry" />
        </mxCell>
        <mxCell id="RAqRMx-kZ3DzzNGbXhLO-187" value="Yes" style="text;html=1;strokeColor=none;fillColor=none;align=center;verticalAlign=middle;whiteSpace=wrap;rounded=0;" vertex="1" parent="1">
          <mxGeometry x="600" y="1180" width="60" height="20" as="geometry" />
        </mxCell>
        <mxCell id="RAqRMx-kZ3DzzNGbXhLO-188" value="Yes" style="text;html=1;strokeColor=none;fillColor=none;align=center;verticalAlign=middle;whiteSpace=wrap;rounded=0;" vertex="1" parent="1">
          <mxGeometry x="600" y="1315" width="60" height="20" as="geometry" />
        </mxCell>
        <mxCell id="RAqRMx-kZ3DzzNGbXhLO-189" value="NO" style="rhombus;whiteSpace=wrap;html=1;fillColor=none;strokeColor=none;gradientColor=none;rounded=0;" vertex="1" parent="1">
          <mxGeometry x="520" y="1680" width="60" height="20" as="geometry" />
        </mxCell>
      </root>
    </mxGraphModel>
  </diagram>
</mxfile>
